# xmcd CD database file
#
# Track frame offsets:
#	150
#	9463
#	21642
#	33949
#	46637
#	59326
#	71504
#	84530
#	98836
#	109776
#	121816
#	134210
#	145916
#	155693
#	166392
#	177089
#	189361
#	200202
#	211165
#	224060
#	236159
#
# Disc length: 3305 seconds
#
# Revision: 1
# Processed by: cddbd v1.5.2PL0 Copyright (c) Steve Scherf et al.
# Submitted via: CDex 1.70beta2
#
DISCID=370ce715
DTITLE=Hank Williams - Best Selection
DYEAR=1900
DGENRE=Country
TTITLE0=My Bucket's Got Hole In It
TTITLE1=Move It Over
TTITLE2=Rootie Tootie
TTITLE3=I Can Get You Off My Mind
TTITLE4=I'm A Long Gone Daddy
TTITLE5=Honky Tonkin'
TTITLE6=Mind Your Own Business
TTITLE7=Lovesick Blues
TTITLE8=Weary Blues
TTITLE9=Lost Highway
TTITLE10=I'm So Lonely, I Could Cry
TTITLE11=Long Gone Lonesome Blues
TTITLE12=Honky Tonk Blues
TTITLE13=I Can't Help It
TTITLE14=Let's Turn Back Years
TTITLE15=I Won't Be Home No More
TTITLE16=My Heart Would Know
TTITLE17=Crazy Heart
TTITLE18=Jambalaya
TTITLE19=Your Cheatin' Heart
TTITLE20=Take These Chains From My Heart
EXTD=
EXTT0=
EXTT1=
EXTT2=
EXTT3=
EXTT4=
EXTT5=
EXTT6=
EXTT7=
EXTT8=
EXTT9=
EXTT10=
EXTT11=
EXTT12=
EXTT13=
EXTT14=
EXTT15=
EXTT16=
EXTT17=
EXTT18=
EXTT19=
EXTT20=
PLAYORDER=
